<?xml version="1.0" encoding="UTF-8"?>
<!--Generator: Apple Native CoreSVG 175.5-->
<!DOCTYPE svg
PUBLIC "-//W3C//DTD SVG 1.1//EN"
       "http://www.w3.org/Graphics/SVG/1.1/DTD/svg11.dtd">
<svg version="1.1" xmlns="http://www.w3.org/2000/svg" xmlns:xlink="http://www.w3.org/1999/xlink" width="17.8224" height="17.8594">
 <g>
  <rect height="17.8594" opacity="0" width="17.8224" x="0" y="0"/>
  <path d="M0.236332 5.53116C0.390632 5.53116 0.48243 5.43799 0.48243 5.28438L0.48243 2.571C0.48243 1.21934 1.18302 0.511044 2.53194 0.511044L5.24033 0.511044C5.40372 0.511044 5.4962 0.427644 5.4962 0.274028C5.4962 0.120412 5.40372 0.0376952 5.24033 0.0376952L2.50332 0.0376952C0.870997 0.0376952 0 0.907325 0 2.54668L0 5.28438C0 5.43799 0.0834 5.53116 0.236332 5.53116ZM17.5854 5.53116C17.7397 5.53116 17.8224 5.43799 17.8224 5.28438L17.8224 2.54668C17.8224 0.934571 16.9514 0.0376952 15.319 0.0376952L12.5814 0.0376952C12.4277 0.0376952 12.3262 0.120412 12.3262 0.274028C12.3262 0.427644 12.4277 0.511044 12.5814 0.511044L15.2898 0.511044C16.5926 0.511044 17.349 1.21934 17.349 2.571L17.349 5.28438C17.349 5.43799 17.4324 5.53116 17.5854 5.53116ZM2.50332 17.8594L5.24033 17.8594C5.40372 17.8594 5.4962 17.776 5.4962 17.6231C5.4962 17.4694 5.40372 17.386 5.24033 17.386L2.53194 17.386C1.18302 17.386 0.48243 16.6777 0.48243 15.3261L0.48243 12.6127C0.48243 12.4584 0.39903 12.3659 0.236332 12.3659C0.0827163 12.3659 0 12.4584 0 12.6127L0 15.3497C0 16.9898 0.870997 17.8594 2.50332 17.8594ZM12.5814 17.8594L15.319 17.8594C16.9514 17.8594 17.8224 16.9618 17.8224 15.3497L17.8224 12.6127C17.8224 12.4584 17.739 12.3659 17.5854 12.3659C17.4317 12.3659 17.349 12.4584 17.349 12.6127L17.349 15.3261C17.349 16.6777 16.5926 17.386 15.2898 17.386L12.5814 17.386C12.4277 17.386 12.3262 17.4694 12.3262 17.6231C12.3262 17.776 12.4277 17.8594 12.5814 17.8594Z" fill="#ffffff"/>
 </g>
</svg>
